<svg xmlns="http://www.w3.org/2000/svg" width="24" height="24" viewBox="0 0 24 24"><defs><style>.a{fill:#fff;}</style></defs><g transform="translate(0 -0.85)"><g transform="translate(0 0.85)"><g transform="translate(0 0)"><path class="a" d="M11.444,22.85H2.861a.978.978,0,0,1-.954-1v-18a.978.978,0,0,1,.954-1h8.583a.977.977,0,0,0,.954-1,.977.977,0,0,0-.954-1H2.861A2.937,2.937,0,0,0,0,3.85v18a2.937,2.937,0,0,0,2.861,3h8.583a1,1,0,0,0,0-2Z" transform="translate(0 -0.85)"/></g></g><g transform="translate(8.665 6.174)"><path class="a" d="M185.151,113.161l-5.8-5.722a.954.954,0,0,0-1.339,1.358l4.144,4.089h-11.1a.954.954,0,0,0,0,1.907h11.1l-4.144,4.089a.954.954,0,1,0,1.339,1.358l5.8-5.722a.953.953,0,0,0,0-1.358Z" transform="translate(-170.1 -107.165)"/></g></g></svg>