<svg xmlns="http://www.w3.org/2000/svg" width="32" height="32" viewBox="0 0 32 32"><defs><style>.a{fill:#fff;}.b{fill:#3b3798;}</style></defs><g transform="translate(-1093 -16.291)"><circle class="a" cx="16" cy="16" r="16" transform="translate(1093 16.291)"/><path class="b" d="M133.942,21.313a3.949,3.949,0,1,0-3.955-3.955A3.956,3.956,0,0,0,133.942,21.313Zm0-6.867a2.912,2.912,0,1,1-2.912,2.912A2.92,2.92,0,0,1,133.942,14.446Z" transform="translate(974.749 11.139)"/><path class="b" d="M.522,346.41H14.256a.518.518,0,0,0,.522-.522,4.968,4.968,0,0,0-4.962-4.962H4.962A4.968,4.968,0,0,0,0,345.888.518.518,0,0,0,.522,346.41Zm4.441-4.441H9.815a3.916,3.916,0,0,1,3.882,3.4H1.08A3.927,3.927,0,0,1,4.962,341.969Z" transform="translate(1101.326 -307.782)"/></g></svg>